<svg width="157" height="40" viewBox="0 0 157 40" fill="none" xmlns="http://www.w3.org/2000/svg">
<g clip-path="url(#clip0_743_4727)">
<path d="M4.13086 31.8161C6.46649 34.9958 9.69039 37.4137 13.3969 38.7655C17.1034 40.1173 21.127 40.3427 24.9613 39.4133C28.7956 38.4838 32.2693 36.4411 34.9454 33.5421C37.6216 30.6431 39.3805 27.0174 40.0009 23.1211C34.5048 25.5949 28.5914 27.0096 22.5709 27.2911L4.13086 31.8161Z" fill="url(#paint0_linear_743_4727)"/>
<path d="M24.63 16.4115L15.495 18.5165C10.8063 20.8543 5.76618 22.4082 0.575012 23.1165H0.5L10.5 29.1565L22.595 27.2815C28.7661 24.369 34.2524 20.1861 38.695 15.0065C38.935 14.7215 39.195 14.4365 39.41 14.1465L24.63 16.4115Z" fill="url(#paint1_linear_743_4727)"/>
<path d="M1.09961 14.1611C5.58734 16.4739 10.4583 17.9512 15.4746 18.5211L26.9746 13.4811L32.5496 4.2461C29.9925 2.24614 26.9869 0.898694 23.7925 0.320155C20.5982 -0.258383 17.311 -0.0506226 14.2148 0.925472C11.1187 1.90157 8.3067 3.61665 6.0217 5.92263C3.73669 8.22862 2.04737 11.0562 1.09961 14.1611Z" fill="url(#paint2_linear_743_4727)"/>
<path d="M22.255 27.306C21.585 27.306 20.91 27.346 20.255 27.346C13.4454 27.3546 6.71172 25.9162 0.5 23.126C0.997839 26.2712 2.24265 29.2512 4.13 31.816C10.5164 31.5488 16.7854 30.0104 22.57 27.291L22.255 27.306Z" fill="url(#paint3_linear_743_4727)"/>
<path d="M25.2446 12.0461C22.2626 14.5913 18.9818 16.7639 15.4746 18.5161C17.055 18.6947 18.6441 18.7848 20.2346 18.7861C20.8196 18.7861 21.4046 18.7861 21.9896 18.7511C28.0482 18.5057 33.9799 16.9391 39.3696 14.1611C38.1735 10.2369 35.7995 6.77546 32.5696 4.24609C30.4226 7.10788 27.966 9.72374 25.2446 12.0461Z" fill="url(#paint4_linear_743_4727)"/>
</g>
<g clip-path="url(#clip1_743_4727)">
<path fill-rule="evenodd" clip-rule="evenodd" d="M129.715 26.5202C129.42 26.5754 129.12 26.6038 128.82 26.6052C128.434 26.6135 128.051 26.5473 127.69 26.4102C127.369 26.2773 127.104 26.037 126.94 25.7302C126.738 25.3046 126.646 24.8356 126.67 24.3652V13.2652H130.98V8.49023H126.67V2.99023H120.315V8.49023H117.18V13.2652H120.315V25.2052C120.256 26.5138 120.583 27.811 121.255 28.9352C121.897 29.9238 122.832 30.6862 123.93 31.1152C125.213 31.6023 126.585 31.8103 127.955 31.7252C128.661 31.7104 129.364 31.6283 130.055 31.4802C130.635 31.3452 131.055 31.2302 131.4 31.1302L130.4 26.4002L129.715 26.5202ZM104.86 17.2652L109.01 18.1002C111.235 18.5552 112.885 19.2952 113.98 20.3002C114.524 20.8103 114.952 21.4315 115.235 22.1217C115.518 22.8119 115.65 23.5549 115.62 24.3002C115.644 25.7305 115.178 27.1259 114.3 28.2552C113.351 29.4399 112.106 30.3524 110.69 30.9002C109.012 31.5627 107.219 31.8856 105.415 31.8502C102.382 31.8469 99.9683 31.2136 98.175 29.9502C97.3102 29.3605 96.5814 28.5928 96.0373 27.6986C95.4932 26.8044 95.1463 25.8043 95.02 24.7652L101.27 24.4352C101.343 24.8616 101.502 25.2687 101.737 25.6315C101.973 25.9943 102.28 26.3052 102.64 26.5452C103.48 27.0102 104.421 27.2604 105.381 27.2735C106.34 27.2866 107.288 27.0622 108.14 26.6202C108.445 26.4563 108.702 26.2146 108.884 25.9196C109.065 25.6245 109.166 25.2867 109.175 24.9402C109.174 24.6627 109.108 24.3893 108.981 24.1424C108.854 23.8956 108.67 23.6823 108.445 23.5202C107.783 23.0705 107.027 22.7765 106.235 22.6602L102.27 21.8702C100.027 21.4202 98.36 20.6436 97.27 19.5402C96.7262 18.984 96.3009 18.3232 96.0199 17.5979C95.7388 16.8725 95.6079 16.0977 95.635 15.3202C95.6018 13.9539 96.024 12.6153 96.835 11.5152C97.7119 10.3935 98.8866 9.54104 100.225 9.05524C101.862 8.44541 103.599 8.15187 105.345 8.19023C108.242 8.19023 110.523 8.80191 112.19 10.0252C113 10.607 113.678 11.3529 114.181 12.2145C114.683 13.076 114.998 14.0338 115.105 15.0252L109.285 15.3852C109.189 14.8885 108.969 14.4241 108.645 14.0352C108.295 13.617 107.854 13.2851 107.355 13.0652C106.754 12.8079 106.104 12.6834 105.45 12.7002C104.575 12.6685 103.709 12.8833 102.95 13.3202C102.649 13.4776 102.398 13.7139 102.221 14.0037C102.045 14.2936 101.951 14.626 101.95 14.9652C101.948 15.2312 102.006 15.4942 102.119 15.7348C102.233 15.9754 102.399 16.1874 102.605 16.3552C103.276 16.8297 104.048 17.1413 104.86 17.2652ZM89.635 11.0852C88.6592 10.126 87.4898 9.38612 86.205 8.91524C84.8487 8.42681 83.4165 8.18303 81.975 8.19523C79.9179 8.14827 77.8874 8.66713 76.105 9.69523C74.4433 10.685 73.1003 12.1305 72.235 13.8602C71.3292 15.8149 70.86 17.9434 70.86 20.0977C70.86 22.2521 71.3292 24.3806 72.235 26.3352C73.1052 28.0569 74.4681 29.4806 76.15 30.4252C78.0166 31.4268 80.1125 31.9232 82.23 31.8652C83.9374 31.898 85.6352 31.6009 87.23 30.9902C88.5909 30.4691 89.8079 29.6309 90.78 28.5452C91.7001 27.495 92.3308 26.2233 92.61 24.8552L86.73 24.4652C86.5271 25.0183 86.2004 25.5177 85.775 25.9252C85.3484 26.3322 84.8357 26.638 84.275 26.8202C83.6492 27.0261 82.9937 27.1274 82.335 27.1202C81.372 27.1447 80.4196 26.9136 79.575 26.4502C78.8015 26.0028 78.1758 25.3389 77.775 24.5402C77.333 23.6245 77.1153 22.6167 77.14 21.6002H92.745V19.8552C92.7866 18.103 92.5087 16.3579 91.925 14.7052C91.4354 13.3457 90.6537 12.11 89.635 11.0852ZM77.135 17.6352C77.1645 16.8428 77.3803 16.0686 77.765 15.3752C78.1764 14.6407 78.775 14.0282 79.5 13.6002C80.2773 13.1513 81.1625 12.9231 82.06 12.9402C82.912 12.9217 83.7538 13.1287 84.5 13.5402C85.1906 13.9356 85.7609 14.5111 86.15 15.2052C86.5557 15.9499 86.7607 16.7873 86.745 17.6352H77.135ZM57.84 26.1702L68.37 12.6252V8.49023H49.89V13.5652H60.72V13.7252L49.5 27.6152V31.4052H68.76V26.3352H57.84V26.1702ZM144.96 25.3202L149.75 8.49023L156.48 8.52023L147.57 33.8852C147.179 35.0432 146.592 36.1256 145.835 37.0852C145.093 38.0014 144.143 38.7281 143.065 39.2052C141.79 39.7367 140.416 39.9923 139.035 39.9552C138.278 39.9599 137.521 39.898 136.775 39.7702C136.183 39.6752 135.602 39.5228 135.04 39.3152L136.47 34.5552C137.38 34.8864 138.359 34.981 139.315 34.8302C140.085 34.6652 140.695 34.0702 141.14 33.0352L141.515 32.0652L133.295 8.49023H139.975L144.72 25.3202H144.96Z" fill="white"/>
</g>
<defs>
<linearGradient id="paint0_linear_743_4727" x1="4.11586" y1="31.5511" x2="39.9859" y2="31.5511" gradientUnits="userSpaceOnUse">
<stop stop-color="#F26D21"/>
<stop offset="0.29" stop-color="#F37121"/>
<stop offset="0.59" stop-color="#F47E22"/>
<stop offset="0.89" stop-color="#F79223"/>
<stop offset="1" stop-color="#F89C24"/>
</linearGradient>
<linearGradient id="paint1_linear_743_4727" x1="19.925" y1="29.1665" x2="19.925" y2="17.7415" gradientUnits="userSpaceOnUse">
<stop stop-color="#DF2926"/>
<stop offset="0.07" stop-color="#E02E26"/>
<stop offset="0.29" stop-color="#E13B26"/>
<stop offset="0.5" stop-color="#E23F26"/>
<stop offset="0.71" stop-color="#E13B26"/>
<stop offset="0.93" stop-color="#E02E26"/>
<stop offset="1" stop-color="#DF2926"/>
</linearGradient>
<linearGradient id="paint2_linear_743_4727" x1="1.09961" y1="9.2461" x2="32.5696" y2="9.2461" gradientUnits="userSpaceOnUse">
<stop stop-color="#F89C24"/>
<stop offset="0.11" stop-color="#F79223"/>
<stop offset="0.41" stop-color="#F47E22"/>
<stop offset="0.71" stop-color="#F37121"/>
<stop offset="1" stop-color="#F26D21"/>
</linearGradient>
<linearGradient id="paint3_linear_743_4727" x1="0.48" y1="27.471" x2="22.555" y2="27.471" gradientUnits="userSpaceOnUse">
<stop stop-color="#EF4B23"/>
<stop offset="0.34" stop-color="#EF4F23"/>
<stop offset="0.7" stop-color="#F15C22"/>
<stop offset="1" stop-color="#F26C21"/>
</linearGradient>
<linearGradient id="paint4_linear_743_4727" x1="15.4746" y1="11.5161" x2="39.3696" y2="11.5161" gradientUnits="userSpaceOnUse">
<stop stop-color="#F26C21"/>
<stop offset="0.3" stop-color="#F15C22"/>
<stop offset="0.66" stop-color="#EF4F23"/>
<stop offset="1" stop-color="#EF4B23"/>
</linearGradient>
<clipPath id="clip0_743_4727">
<rect width="40" height="40" fill="white"/>
</clipPath>
<clipPath id="clip1_743_4727">
<rect width="106.98" height="36.955" fill="white" transform="translate(49.5 3)"/>
</clipPath>
</defs>
</svg>
