<?xml version="1.0" encoding="utf-8"?>
<svg width="40" height="40" viewBox="0 0 40 40" fill="none" xmlns="http://www.w3.org/2000/svg">
  <g clip-path="url(#clip0_783_2757)">
    <path d="M4.13086 31.8161C6.46649 34.9958 9.69039 37.4137 13.3969 38.7655C17.1034 40.1173 21.127 40.3427 24.9613 39.4133C28.7956 38.4838 32.2693 36.4411 34.9454 33.5421C37.6216 30.6431 39.3805 27.0174 40.0009 23.1211C34.5048 25.5949 28.5914 27.0096 22.5709 27.2911L4.13086 31.8161Z" style="fill: rgb(30, 27, 49);"/>
    <path d="M24.63 16.4115L15.495 18.5165C10.8063 20.8543 5.76618 22.4082 0.575012 23.1165H0.5L10.5 29.1565L22.595 27.2815C28.7661 24.369 34.2524 20.1861 38.695 15.0065C38.935 14.7215 39.195 14.4365 39.41 14.1465L24.63 16.4115Z" style="fill: rgb(30, 27, 49);"/>
    <path d="M1.09961 14.1611C5.58734 16.4739 10.4583 17.9512 15.4746 18.5211L26.9746 13.4811L32.5496 4.2461C29.9925 2.24614 26.9869 0.898694 23.7925 0.320155C20.5982 -0.258383 17.311 -0.0506226 14.2148 0.925472C11.1187 1.90157 8.3067 3.61665 6.0217 5.92263C3.73669 8.22862 2.04737 11.0562 1.09961 14.1611Z" style="fill: rgb(30, 27, 49);"/>
    <path d="M22.255 27.306C21.585 27.306 20.91 27.346 20.255 27.346C13.4454 27.3546 6.71172 25.9162 0.5 23.126C0.997839 26.2712 2.24265 29.2512 4.13 31.816C10.5164 31.5488 16.7854 30.0104 22.57 27.291L22.255 27.306Z" style="fill: rgb(30, 27, 49);"/>
    <path d="M25.2446 12.0461C22.2626 14.5913 18.9818 16.7639 15.4746 18.5161C17.055 18.6947 18.6441 18.7848 20.2346 18.7861C20.8196 18.7861 21.4046 18.7861 21.9896 18.7511C28.0482 18.5057 33.9799 16.9391 39.3696 14.1611C38.1735 10.2369 35.7995 6.77546 32.5696 4.24609C30.4226 7.10788 27.966 9.72374 25.2446 12.0461Z" style="fill: rgb(30, 27, 49);"/>
  </g>
  <defs>
    <clipPath id="clip0_783_2757">
      <rect width="40" height="40" fill="white"/>
    </clipPath>
  </defs>
</svg>