<svg width="118" height="31" viewBox="0 0 118 31" fill="none" xmlns="http://www.w3.org/2000/svg">
<g opacity="0.5" clip-path="url(#clip0_743_4783)">
<path d="M2.74609 23.9481C4.50309 26.3401 6.92829 28.1589 9.71654 29.1758C12.5048 30.1928 15.5315 30.3623 18.4159 29.6631C21.3003 28.9639 23.9135 27.4273 25.9266 25.2465C27.9397 23.0657 29.2628 20.3382 29.7295 17.4072C25.5951 19.2681 21.1467 20.3324 16.6177 20.5441L2.74609 23.9481Z" fill="#837C99"/>
<path d="M18.1676 12.3596L11.2957 13.9431C7.76857 15.7018 3.97714 16.8707 0.0720534 17.4035H0.015625L7.53819 21.9471L16.6367 20.5366C21.2789 18.3457 25.4061 15.1991 28.7481 11.3027C28.9286 11.0883 29.1242 10.8739 29.2859 10.6558L18.1676 12.3596Z" fill="#635B7C"/>
<path d="M0.466797 10.6669C3.84272 12.4067 7.5069 13.5181 11.2805 13.9468L19.9314 10.1554L24.1253 3.20832C22.2016 1.70383 19.9407 0.690209 17.5377 0.254999C15.1347 -0.18021 12.6619 -0.023921 10.3328 0.710352C8.00372 1.44463 5.88838 2.73481 4.16947 4.4695C2.45056 6.20419 1.17975 8.33124 0.466797 10.6669Z" fill="#837C99"/>
<path d="M16.381 20.5556C15.877 20.5556 15.3692 20.5857 14.8765 20.5857C9.7539 20.5921 4.68843 19.5101 0.015625 17.4111C0.390128 19.7771 1.32654 22.0189 2.74632 23.9482C7.55053 23.7472 12.2664 22.59 16.6179 20.5443L16.381 20.5556Z" fill="#837C99"/>
<path d="M18.6288 9.07609C16.3856 10.9907 13.9176 12.6251 11.2793 13.9432C12.4682 14.0775 13.6636 14.1453 14.86 14.1463C15.3001 14.1463 15.7402 14.1463 16.1802 14.12C20.7378 13.9354 25.2 12.7569 29.2545 10.6671C28.3547 7.71511 26.5689 5.11123 24.1391 3.2085C22.524 5.3613 20.6761 7.32909 18.6288 9.07609Z" fill="#837C99"/>
<path d="M42.5785 19.6677L50.5035 9.4784V6.37158H36.5981V10.1855H44.745V10.3096L36.3047 20.7585V23.6095H50.7932V19.7918H42.5785V19.6677Z" fill="#837C99"/>
<path d="M66.4986 8.31978C65.7646 7.59815 64.8849 7.04161 63.9184 6.68738C62.8981 6.31996 61.8207 6.13657 60.7363 6.14576C59.1889 6.11043 57.6614 6.50075 56.3206 7.27414C55.0706 8.01871 54.0603 9.10605 53.4094 10.4073C52.728 11.8777 52.375 13.4789 52.375 15.0995C52.375 16.7201 52.728 18.3213 53.4094 19.7917C54.064 21.0868 55.0892 22.1578 56.3545 22.8684C57.7586 23.6219 59.3353 23.9953 60.9282 23.9517C62.2126 23.9763 63.4897 23.7528 64.6895 23.2934C65.7132 22.9014 66.6287 22.2709 67.36 21.4542C68.0521 20.6641 68.5265 19.7075 68.7366 18.6783L64.3133 18.385C64.1607 18.801 63.915 19.1767 63.5949 19.4833C63.274 19.7894 62.8884 20.0195 62.4665 20.1565C61.9958 20.3114 61.5027 20.3876 61.0072 20.3822C60.2827 20.4007 59.5663 20.2267 58.9309 19.8782C58.3491 19.5416 57.8784 19.0422 57.5769 18.4414C57.2444 17.7526 57.0806 16.9944 57.0992 16.2298H68.8382V14.9171C68.8694 13.5989 68.6604 12.2862 68.2213 11.0429C67.853 10.0202 67.265 9.09068 66.4986 8.31978ZM57.0954 13.2471C57.1176 12.651 57.28 12.0685 57.5694 11.547C57.8788 10.9944 58.3291 10.5337 58.8745 10.2117C59.4593 9.87397 60.1251 9.7023 60.8003 9.71521C61.4412 9.70127 62.0744 9.85699 62.6358 10.1666C63.1553 10.464 63.5843 10.8969 63.877 11.4191C64.1822 11.9793 64.3364 12.6092 64.3246 13.2471H57.0954Z" fill="#837C99"/>
<path d="M81.0748 13.597L77.953 12.9689C77.342 12.8757 76.7612 12.6413 76.2566 12.2843C76.1014 12.1581 75.9766 11.9986 75.8913 11.8176C75.806 11.6366 75.7625 11.4388 75.7639 11.2387C75.7649 10.9835 75.8355 10.7334 75.968 10.5154C76.1006 10.2973 76.2901 10.1196 76.5162 10.0012C77.0869 9.67255 77.7386 9.51092 78.3968 9.53483C78.8887 9.52217 79.3775 9.61583 79.8299 9.8094C80.2051 9.97478 80.5372 10.2245 80.8003 10.5391C81.0438 10.8316 81.2094 11.1809 81.2817 11.5546L85.6598 11.2838C85.5792 10.538 85.3422 9.81751 84.9644 9.16942C84.5866 8.52133 84.0763 7.96017 83.467 7.52255C82.2133 6.60229 80.4969 6.14215 78.3178 6.14215C77.0044 6.11329 75.6974 6.33411 74.4663 6.79286C73.4595 7.15831 72.5758 7.79957 71.9161 8.6434C71.306 9.47095 70.9885 10.4779 71.0134 11.5057C70.993 12.0906 71.0915 12.6734 71.3029 13.2191C71.5143 13.7648 71.8343 14.2618 72.2434 14.6803C73.0633 15.5103 74.3171 16.0945 76.0046 16.433L78.9873 17.0273C79.5832 17.1147 80.1516 17.3359 80.6498 17.6743C80.8193 17.7962 80.9574 17.9566 81.0529 18.1423C81.1484 18.328 81.1984 18.5337 81.199 18.7425C81.1921 19.0031 81.1165 19.2572 80.9798 19.4792C80.8431 19.7011 80.6501 19.8829 80.4204 20.0062C79.7796 20.3387 79.0665 20.5075 78.3446 20.4977C77.6227 20.4878 76.9145 20.2996 76.283 19.9498C76.0123 19.7693 75.7813 19.5354 75.604 19.2624C75.4268 18.9895 75.3072 18.6833 75.2524 18.3626L70.5508 18.6108C70.6458 19.3925 70.9067 20.1448 71.3161 20.8175C71.7254 21.4901 72.2736 22.0676 72.9241 22.5113C74.2732 23.4616 76.0886 23.938 78.3705 23.9405C79.7274 23.9671 81.0762 23.7242 82.3386 23.2259C83.4035 22.8138 84.3404 22.1273 85.0543 21.2362C85.7147 20.3866 86.065 19.3369 86.0473 18.261C86.0695 17.7003 85.9708 17.1414 85.7579 16.6222C85.5451 16.103 85.223 15.6357 84.8136 15.252C83.9898 14.496 82.7486 13.9393 81.0748 13.597Z" fill="#837C99"/>
<path d="M96.6502 19.9311C96.4282 19.9726 96.2028 19.994 95.977 19.995C95.6868 20.0012 95.3982 19.9514 95.1269 19.8483C94.8852 19.7483 94.6858 19.5675 94.5627 19.3368C94.4111 19.0166 94.3413 18.6638 94.3596 18.31V9.9599H97.6018V6.36788H94.3596V2.23047H89.579V6.36788H87.2207V9.9599H89.579V18.9419C89.5345 19.9263 89.7804 20.902 90.2861 21.7478C90.7689 22.4914 91.4727 23.0649 92.2984 23.3877C93.2636 23.7541 94.2958 23.9105 95.3263 23.8466C95.8575 23.8354 96.3865 23.7737 96.906 23.6623C97.3423 23.5607 97.6583 23.4742 97.9178 23.399L97.1655 19.8408L96.6502 19.9311Z" fill="#837C99"/>
<path d="M111.722 6.36768L108.119 19.0282H107.938L104.369 6.36768H99.3438L105.527 24.1021L105.245 24.8318C104.91 25.6104 104.452 26.058 103.872 26.1821C103.153 26.2955 102.417 26.2244 101.732 25.9753L100.656 29.556C101.079 29.7121 101.516 29.8268 101.962 29.8983C102.523 29.9944 103.092 30.0409 103.662 30.0374C104.701 30.0653 105.734 29.873 106.693 29.4732C107.504 29.1143 108.219 28.5677 108.777 27.8785C109.347 27.1566 109.788 26.3424 110.082 25.4712L116.785 6.39024L111.722 6.36768Z" fill="#837C99"/>
</g>
<defs>
<clipPath id="clip0_743_4783">
<rect width="116.78" height="30.0903" fill="white"/>
</clipPath>
</defs>
</svg>
